<?xml version="1.0" encoding="UTF-8"?>
<!DOCTYPE svg PUBLIC "-//W3C//DTD SVG 1.1//EN" "http://www.w3.org/Graphics/SVG/1.1/DTD/svg11.dtd"[
    <!ENTITY backColor "darkred">
]>
<svg xmlns="http://www.w3.org/2000/svg" 
    xmlns:xlink="http://www.w3.org/1999/xlink" version="1.1" width="800" height="400">
    <defs>
        <style>
        * {
            font-size: 24px;
            font-weight: bold;
            font-family: Helvetica, sans-serif;
        }
        .checker-background {
            fill: white;
        }
        .checker {
            fill: &backColor;;
        }
        </style>
        <text id="clubs" fill="black" text-anchor="middle">♣</text>
        <text id="diamonds" fill="red" text-anchor="middle">♦</text>
        <text id="hearts" fill="red" text-anchor="middle">♥</text>
        <text id="spades" fill="black" text-anchor="middle">♠</text>
        <g id="A_hearts" viewBox="0 0 80 112">
            <rect width="80" height="112" rx="10" ry="10" fill="white" stroke="grey"/>
            <text text-anchor="middle" x="20" y="30" fill="red">A</text>
            <use x="20" y="60" xlink:href="#hearts"/>
        </g>
        <g id="2_hearts" viewBox="0 0 80 112">
            <rect width="80" height="112" rx="10" ry="10" fill="white" stroke="grey"/>
            <text text-anchor="middle" x="20" y="30" fill="red">2</text>
            <use x="20" y="60" xlink:href="#hearts"/>
        </g>
        <g id="3_hearts" viewBox="0 0 80 112">
            <rect width="80" height="112" rx="10" ry="10" fill="white" stroke="grey"/>
            <text text-anchor="middle" x="20" y="30" fill="red">3</text>
            <use x="20" y="60" xlink:href="#hearts"/>
        </g>
        <g id="4_hearts" viewBox="0 0 80 112">
            <rect width="80" height="112" rx="10" ry="10" fill="white" stroke="grey"/>
            <text text-anchor="middle" x="20" y="30" fill="red">4</text>
            <use x="20" y="60" xlink:href="#hearts"/>
        </g>
        <g id="5_hearts" viewBox="0 0 80 112">
            <rect width="80" height="112" rx="10" ry="10" fill="white" stroke="grey"/>
            <text text-anchor="middle" x="20" y="30" fill="red">5</text>
            <use x="20" y="60" xlink:href="#hearts"/>
        </g>
        <g id="6_hearts" viewBox="0 0 80 112">
            <rect width="80" height="112" rx="10" ry="10" fill="white" stroke="grey"/>
            <text text-anchor="middle" x="20" y="30" fill="red">6</text>
            <use x="20" y="60" xlink:href="#hearts"/>
        </g>
        <g id="7_hearts" viewBox="0 0 80 112">
            <rect width="80" height="112" rx="10" ry="10" fill="white" stroke="grey"/>
            <text text-anchor="middle" x="20" y="30" fill="red">7</text>
            <use x="20" y="60" xlink:href="#hearts"/>
        </g>
        <g id="8_hearts" viewBox="0 0 80 112">
            <rect width="80" height="112" rx="10" ry="10" fill="white" stroke="grey"/>
            <text text-anchor="middle" x="20" y="30" fill="red">8</text>
            <use x="20" y="60" xlink:href="#hearts"/>
        </g>
        <g id="9_hearts" viewBox="0 0 80 112">
            <rect width="80" height="112" rx="10" ry="10" fill="white" stroke="grey"/>
            <text text-anchor="middle" x="20" y="30" fill="red">9</text>
            <use x="20" y="60" xlink:href="#hearts"/>
        </g>
        <g id="10_hearts" viewBox="0 0 80 112">
            <rect width="80" height="112" rx="10" ry="10" fill="white" stroke="grey"/>
            <text text-anchor="middle" x="20" y="30" fill="red">10</text>
            <use x="20" y="60" xlink:href="#hearts"/>
        </g>
        <g id="B_hearts" viewBox="0 0 80 112">
            <rect width="80" height="112" rx="10" ry="10" fill="white" stroke="grey"/>
            <text text-anchor="middle" x="20" y="30" fill="red">B</text>
            <use x="20" y="60" xlink:href="#hearts"/>
        </g>
        <g id="D_hearts" viewBox="0 0 80 112">
            <rect width="80" height="112" rx="10" ry="10" fill="white" stroke="grey"/>
            <text text-anchor="middle" x="20" y="30" fill="red">D</text>
            <use x="20" y="60" xlink:href="#hearts"/>
        </g>
        <g id="K_hearts" viewBox="0 0 80 112">
            <rect width="80" height="112" rx="10" ry="10" fill="white" stroke="grey"/>
            <text text-anchor="middle" x="20" y="30" fill="red">K</text>
            <use x="20" y="60" xlink:href="#hearts"/>
        </g>
        <g id="A_diamonds" viewBox="0 0 80 112">
            <rect width="80" height="112" rx="10" ry="10" fill="white" stroke="grey"/>
            <text text-anchor="middle" x="20" y="30" fill="red">A</text>
            <use x="20" y="60" xlink:href="#diamonds"/>
        </g>
        <g id="2_diamonds" viewBox="0 0 80 112">
            <rect width="80" height="112" rx="10" ry="10" fill="white" stroke="grey"/>
            <text text-anchor="middle" x="20" y="30" fill="red">2</text>
            <use x="20" y="60" xlink:href="#diamonds"/>
        </g>
        <g id="3_diamonds" viewBox="0 0 80 112">
            <rect width="80" height="112" rx="10" ry="10" fill="white" stroke="grey"/>
            <text text-anchor="middle" x="20" y="30" fill="red">3</text>
            <use x="20" y="60" xlink:href="#diamonds"/>
        </g>
        <g id="4_diamonds" viewBox="0 0 80 112">
            <rect width="80" height="112" rx="10" ry="10" fill="white" stroke="grey"/>
            <text text-anchor="middle" x="20" y="30" fill="red">4</text>
            <use x="20" y="60" xlink:href="#diamonds"/>
        </g>
        <g id="5_diamonds" viewBox="0 0 80 112">
            <rect width="80" height="112" rx="10" ry="10" fill="white" stroke="grey"/>
            <text text-anchor="middle" x="20" y="30" fill="red">5</text>
            <use x="20" y="60" xlink:href="#diamonds"/>
        </g>
        <g id="6_diamonds" viewBox="0 0 80 112">
            <rect width="80" height="112" rx="10" ry="10" fill="white" stroke="grey"/>
            <text text-anchor="middle" x="20" y="30" fill="red">6</text>
            <use x="20" y="60" xlink:href="#diamonds"/>
        </g>
        <g id="7_diamonds" viewBox="0 0 80 112">
            <rect width="80" height="112" rx="10" ry="10" fill="white" stroke="grey"/>
            <text text-anchor="middle" x="20" y="30" fill="red">7</text>
            <use x="20" y="60" xlink:href="#diamonds"/>
        </g>
        <g id="8_diamonds" viewBox="0 0 80 112">
            <rect width="80" height="112" rx="10" ry="10" fill="white" stroke="grey"/>
            <text text-anchor="middle" x="20" y="30" fill="red">8</text>
            <use x="20" y="60" xlink:href="#diamonds"/>
        </g>
        <g id="9_diamonds" viewBox="0 0 80 112">
            <rect width="80" height="112" rx="10" ry="10" fill="white" stroke="grey"/>
            <text text-anchor="middle" x="20" y="30" fill="red">9</text>
            <use x="20" y="60" xlink:href="#diamonds"/>
        </g>
        <g id="10_diamonds" viewBox="0 0 80 112">
            <rect width="80" height="112" rx="10" ry="10" fill="white" stroke="grey"/>
            <text text-anchor="middle" x="20" y="30" fill="red">10</text>
            <use x="20" y="60" xlink:href="#diamonds"/>
        </g>
        <g id="B_diamonds" viewBox="0 0 80 112">
            <rect width="80" height="112" rx="10" ry="10" fill="white" stroke="grey"/>
            <text text-anchor="middle" x="20" y="30" fill="red">B</text>
            <use x="20" y="60" xlink:href="#diamonds"/>
        </g>
        <g id="D_diamonds" viewBox="0 0 80 112">
            <rect width="80" height="112" rx="10" ry="10" fill="white" stroke="grey"/>
            <text text-anchor="middle" x="20" y="30" fill="red">D</text>
            <use x="20" y="60" xlink:href="#diamonds"/>
        </g>
        <g id="K_diamonds" viewBox="0 0 80 112">
            <rect width="80" height="112" rx="10" ry="10" fill="white" stroke="grey"/>
            <text text-anchor="middle" x="20" y="30" fill="red">K</text>
            <use x="20" y="60" xlink:href="#diamonds"/>
        </g>
        <g id="A_clubs" viewBox="0 0 80 112">
            <rect width="80" height="112" rx="10" ry="10" fill="white" stroke="grey"/>
            <text text-anchor="middle" x="20" y="30" fill="black">A</text>
            <use x="20" y="60" xlink:href="#clubs"/>
        </g>
        <g id="2_clubs" viewBox="0 0 80 112">
            <rect width="80" height="112" rx="10" ry="10" fill="white" stroke="grey"/>
            <text text-anchor="middle" x="20" y="30" fill="black">2</text>
            <use x="20" y="60" xlink:href="#clubs"/>
        </g>
        <g id="3_clubs" viewBox="0 0 80 112">
            <rect width="80" height="112" rx="10" ry="10" fill="white" stroke="grey"/>
            <text text-anchor="middle" x="20" y="30" fill="black">3</text>
            <use x="20" y="60" xlink:href="#clubs"/>
        </g>
        <g id="4_clubs" viewBox="0 0 80 112">
            <rect width="80" height="112" rx="10" ry="10" fill="white" stroke="grey"/>
            <text text-anchor="middle" x="20" y="30" fill="black">4</text>
            <use x="20" y="60" xlink:href="#clubs"/>
        </g>
        <g id="5_clubs" viewBox="0 0 80 112">
            <rect width="80" height="112" rx="10" ry="10" fill="white" stroke="grey"/>
            <text text-anchor="middle" x="20" y="30" fill="black">5</text>
            <use x="20" y="60" xlink:href="#clubs"/>
        </g>
        <g id="6_clubs" viewBox="0 0 80 112">
            <rect width="80" height="112" rx="10" ry="10" fill="white" stroke="grey"/>
            <text text-anchor="middle" x="20" y="30" fill="black">6</text>
            <use x="20" y="60" xlink:href="#clubs"/>
        </g>
        <g id="7_clubs" viewBox="0 0 80 112">
            <rect width="80" height="112" rx="10" ry="10" fill="white" stroke="grey"/>
            <text text-anchor="middle" x="20" y="30" fill="black">7</text>
            <use x="20" y="60" xlink:href="#clubs"/>
        </g>
        <g id="8_clubs" viewBox="0 0 80 112">
            <rect width="80" height="112" rx="10" ry="10" fill="white" stroke="grey"/>
            <text text-anchor="middle" x="20" y="30" fill="black">8</text>
            <use x="20" y="60" xlink:href="#clubs"/>
        </g>
        <g id="9_clubs" viewBox="0 0 80 112">
            <rect width="80" height="112" rx="10" ry="10" fill="white" stroke="grey"/>
            <text text-anchor="middle" x="20" y="30" fill="black">9</text>
            <use x="20" y="60" xlink:href="#clubs"/>
        </g>
        <g id="10_clubs" viewBox="0 0 80 112">
            <rect width="80" height="112" rx="10" ry="10" fill="white" stroke="grey"/>
            <text text-anchor="middle" x="20" y="30" fill="black">10</text>
            <use x="20" y="60" xlink:href="#clubs"/>
        </g>
        <g id="B_clubs" viewBox="0 0 80 112">
            <rect width="80" height="112" rx="10" ry="10" fill="white" stroke="grey"/>
            <text text-anchor="middle" x="20" y="30" fill="black">B</text>
            <use x="20" y="60" xlink:href="#clubs"/>
        </g>
        <g id="D_clubs" viewBox="0 0 80 112">
            <rect width="80" height="112" rx="10" ry="10" fill="white" stroke="grey"/>
            <text text-anchor="middle" x="20" y="30" fill="black">D</text>
            <use x="20" y="60" xlink:href="#clubs"/>
        </g>
        <g id="K_clubs" viewBox="0 0 80 112">
            <rect width="80" height="112" rx="10" ry="10" fill="white" stroke="grey"/>
            <text text-anchor="middle" x="20" y="30" fill="black">K</text>
            <use x="20" y="60" xlink:href="#clubs"/>
        </g>
        <g id="A_spades" viewBox="0 0 80 112">
            <rect width="80" height="112" rx="10" ry="10" fill="white" stroke="grey"/>
            <text text-anchor="middle" x="20" y="30" fill="black">A</text>
            <use x="20" y="60" xlink:href="#spades"/>
        </g>
        <g id="2_spades" viewBox="0 0 80 112">
            <rect width="80" height="112" rx="10" ry="10" fill="white" stroke="grey"/>
            <text text-anchor="middle" x="20" y="30" fill="black">2</text>
            <use x="20" y="60" xlink:href="#spades"/>
        </g>
        <g id="3_spades" viewBox="0 0 80 112">
            <rect width="80" height="112" rx="10" ry="10" fill="white" stroke="grey"/>
            <text text-anchor="middle" x="20" y="30" fill="black">3</text>
            <use x="20" y="60" xlink:href="#spades"/>
        </g>
        <g id="4_spades" viewBox="0 0 80 112">
            <rect width="80" height="112" rx="10" ry="10" fill="white" stroke="grey"/>
            <text text-anchor="middle" x="20" y="30" fill="black">4</text>
            <use x="20" y="60" xlink:href="#spades"/>
        </g>
        <g id="5_spades" viewBox="0 0 80 112">
            <rect width="80" height="112" rx="10" ry="10" fill="white" stroke="grey"/>
            <text text-anchor="middle" x="20" y="30" fill="black">5</text>
            <use x="20" y="60" xlink:href="#spades"/>
        </g>
        <g id="6_spades" viewBox="0 0 80 112">
            <rect width="80" height="112" rx="10" ry="10" fill="white" stroke="grey"/>
            <text text-anchor="middle" x="20" y="30" fill="black">6</text>
            <use x="20" y="60" xlink:href="#spades"/>
        </g>
        <g id="7_spades" viewBox="0 0 80 112">
            <rect width="80" height="112" rx="10" ry="10" fill="white" stroke="grey"/>
            <text text-anchor="middle" x="20" y="30" fill="black">7</text>
            <use x="20" y="60" xlink:href="#spades"/>
        </g>
        <g id="8_spades" viewBox="0 0 80 112">
            <rect width="80" height="112" rx="10" ry="10" fill="white" stroke="grey"/>
            <text text-anchor="middle" x="20" y="30" fill="black">8</text>
            <use x="20" y="60" xlink:href="#spades"/>
        </g>
        <g id="9_spades" viewBox="0 0 80 112">
            <rect width="80" height="112" rx="10" ry="10" fill="white" stroke="grey"/>
            <text text-anchor="middle" x="20" y="30" fill="black">9</text>
            <use x="20" y="60" xlink:href="#spades"/>
        </g>
        <g id="10_spades" viewBox="0 0 80 112">
            <rect width="80" height="112" rx="10" ry="10" fill="white" stroke="grey"/>
            <text text-anchor="middle" x="20" y="30" fill="black">10</text>
            <use x="20" y="60" xlink:href="#spades"/>
        </g>
        <g id="B_spades" viewBox="0 0 80 112">
            <rect width="80" height="112" rx="10" ry="10" fill="white" stroke="grey"/>
            <text text-anchor="middle" x="20" y="30" fill="black">B</text>
            <use x="20" y="60" xlink:href="#spades"/>
        </g>
        <g id="D_spades" viewBox="0 0 80 112">
            <rect width="80" height="112" rx="10" ry="10" fill="white" stroke="grey"/>
            <text text-anchor="middle" x="20" y="30" fill="black">D</text>
            <use x="20" y="60" xlink:href="#spades"/>
        </g>
        <g id="K_spades" viewBox="0 0 80 112">
            <rect width="80" height="112" rx="10" ry="10" fill="white" stroke="grey"/>
            <text text-anchor="middle" x="20" y="30" fill="black">K</text>
            <use x="20" y="60" xlink:href="#spades"/>
        </g>

        <!-- back design, rueckseite -->
        <pattern id="pattern-checkers" viewBox="0,0,80,112" width="10%" height="10%">
            <rect class="checker-background" x="0" y="0" width="80" height="112"/>
            <rect class="checker" x="0" y="0" width="40" height="56"/>
            <rect class="checker" x="40" y="56" width="40" height="56"/>
        </pattern>

        <g id="back" viewBox="0 0 80 112">
            <rect width="80" height="112" rx="10" ry="10" fill="white" stroke="grey"/>
            <rect x="5" y="5" width="70" height="102" rx="5" ry="5" fill="url(#pattern-checkers)" stroke="&backColor;" stroke-width="3"/>
        </g>

    </defs>
    <!-- Beispiel -->
    <use xlink:href="#A_hearts" x="20" y="20"/>
    <use xlink:href="#K_clubs" x="60" y="30"/>
    <use xlink:href="#back" x="100" y="40"/>
</svg>