<?xml version="1.0" encoding="UTF-8"?>
<!DOCTYPE svg PUBLIC "-//W3C//DTD SVG 1.1//EN" "http://www.w3.org/Graphics/SVG/1.1/DTD/svg11.dtd">
<svg xmlns="http://www.w3.org/2000/svg" 
    xmlns:xlink="http://www.w3.org/1999/xlink" version="1.1" width="800" height="600">
    <defs>
        <style>
            * {
            font-size: 24px;
            font-weight: bold;
            font-family: Helvetica, sans-serif;
            }
        </style>
        <path id="heart2" d="M 216.50043,906.61239 C 216.15723,905.99414 214.68176,901.52418 213.22160,896.67911 C 203.96781,865.97319 186.78919,834.88002 158.02135,796.76700 C 147.21332,782.44803 137.04027,769.76836 109.53195,736.32989 C 77.680663,697.61227 68.557087,685.20914 59.344127,668.10174 C 53.903664,657.99946 48.265682,642.62811 46.410340,632.83915 C 44.556056,623.05587 44.525826,607.07238 46.345850,598.74964 C 53.749127,564.89549 83.820561,539.35493 119.77880,536.38086 C 160.97167,532.97385 196.01144,553.78323 214.42221,592.58758 L 218.53337,601.25265 L 221.62754,594.40729 C 226.22517,584.23584 230.65291,577.35650 238.12646,568.77315 C 257.15444,546.91951 279.80001,536.21452 307.08088,536.17707 C 319.30086,536.16032 326.30318,537.17456 336.71630,540.46962 C 352.29024,545.39773 364.01387,553.07492 374.45497,565.18276 C 401.66486,596.73613 398.44315,639.72269 364.92253,692.37036 C 357.10321,704.65146 342.99490,722.82236 323.59258,745.60159 C 301.24949,771.83343 290.33235,785.16501 279.15526,799.86674 C 252.36377,835.10678 234.34536,867.12695 224.43433,897.11016 C 222.92242,901.68408 221.33841,905.94614 220.91430,906.58141 C 219.92943,908.05665 217.31241,908.07502 216.50043,906.61239 z " style="fill:#ff0000;fill-opacity:1.0000000"/>
        <text id="clubs" fill="black" text-anchor="middle">♣</text>
        <text id="diamonds" fill="red" text-anchor="middle">♦</text>
        <text id="hearts" fill="red" text-anchor="middle">♥</text>
        <text id="spades" fill="black" text-anchor="middle">♠</text>
        <g id="empty_card">
        <rect width="80" height="112" rx="10" ry="10" fill="white" stroke="black"/>
        </g>
        <g id="center_card">
            <rect width="45" height="72" rx="5" ry="5" fill="white" stroke="black" opacity="0.25" stroke-width="0.3"/>
        </g>
        
        <pattern id="Pattern" x="0" y="0" width="0.06" height=".06">
            <text transform="scale(0.25)" x="6" y="15" id="diamonds" fill="red" text-anchor="middle">♦</text>
        </pattern>
        
        <g id="backside" viewBox="0 0 80 120">
            <use x="0" y="0" xlink:href="#empty_card"/>
            <rect x="5" y="6" width="70" height="100" rx="5" ry="5" fill="rgb(135,181,255)" stroke="black" opacity="1" stroke-width="0.3"/>
            <rect x="5" y="6" width="70" height="100" rx="5" ry="5" fill="url(#Pattern)" stroke="black" opacity="1" stroke-width="0.3"/>
            
        </g>
        
        
        <g id="A_hearts" viewBox="0 0 80 120">
            <use x="0" y="0" xlink:href="#empty_card"/>
            <use x="18" y="20" xlink:href="#center_card"/>
            <use transform="rotate(0) scale(0.8)" x="13" y="40" xlink:href="#hearts"/>
            <use transform="rotate(180) scale(0.8)" x="-87" y="-100" xlink:href="#hearts"/>
            <use transform="rotate(0) scale(3.2)" x="12.65" y="25" xlink:href="#hearts"/>
            <text transform="rotate(0) scale(0.8)" text-anchor="middle" x="13" y="22" fill="red">A</text>
            <text transform="rotate(180) scale(0.8)"  text-anchor="middle" x="-87" y="-118" fill="red">A</text>    
        </g>
        
        <g id="2_hearts" viewBox="0 0 80 120">
            <use x="0" y="0" xlink:href="#empty_card"/>
            <use x="18" y="20" xlink:href="#center_card"/>
            <use transform="rotate(0) scale(0.8)" x="13" y="40" xlink:href="#hearts"/>
            <use transform="rotate(180) scale(0.8)" x="-87" y="-100" xlink:href="#hearts"/>
            <use transform="rotate(0) scale(3.2)" x="12.65" y="25" xlink:href="#hearts"/>
            <text transform="rotate(0) scale(0.8)" text-anchor="middle" x="13" y="22" fill="red">2</text>
            <text transform="rotate(180) scale(0.8)"  text-anchor="middle" x="-87" y="-118" fill="red">2</text>    
        </g>
        
        <g id="3_hearts" viewBox="0 0 80 120">
            <use x="0" y="0" xlink:href="#empty_card"/>
            <use x="18" y="20" xlink:href="#center_card"/>
            <use transform="rotate(0) scale(0.8)" x="13" y="40" xlink:href="#hearts"/>
            <use transform="rotate(180) scale(0.8)" x="-87" y="-100" xlink:href="#hearts"/>
            <use transform="rotate(0) scale(3.2)" x="12.65" y="25" xlink:href="#hearts"/>
            <text transform="rotate(0) scale(0.8)" text-anchor="middle" x="13" y="22" fill="red">3</text>
            <text transform="rotate(180) scale(0.8)"  text-anchor="middle" x="-87" y="-118" fill="red">3</text>    
        </g>
        
        
        <g id="4_hearts" viewBox="0 0 80 120">
            <use x="0" y="0" xlink:href="#empty_card"/>
            <use x="18" y="20" xlink:href="#center_card"/>
            <use transform="rotate(0) scale(0.8)" x="13" y="40" xlink:href="#hearts"/>
            <use transform="rotate(180) scale(0.8)" x="-87" y="-100" xlink:href="#hearts"/>
            <use transform="rotate(0) scale(3.2)" x="12.65" y="25" xlink:href="#hearts"/>
            <text transform="rotate(0) scale(0.8)" text-anchor="middle" x="13" y="22" fill="red">4</text>
            <text transform="rotate(180) scale(0.8)"  text-anchor="middle" x="-87" y="-118" fill="red">4</text>    
        </g>
        
        <g id="5_hearts" viewBox="0 0 80 120">
            <use x="0" y="0" xlink:href="#empty_card"/>
            <use x="18" y="20" xlink:href="#center_card"/>
            <use transform="rotate(0) scale(0.8)" x="13" y="40" xlink:href="#hearts"/>
            <use transform="rotate(180) scale(0.8)" x="-87" y="-100" xlink:href="#hearts"/>
            <use transform="rotate(0) scale(3.2)" x="12.65" y="25" xlink:href="#hearts"/>
            <text transform="rotate(0) scale(0.8)" text-anchor="middle" x="13" y="22" fill="red">5</text>
            <text transform="rotate(180) scale(0.8)"  text-anchor="middle" x="-87" y="-118" fill="red">5</text>    
        </g>
        <g id="6_hearts" viewBox="0 0 80 120">
            <use x="0" y="0" xlink:href="#empty_card"/>
            <use x="18" y="20" xlink:href="#center_card"/>
            <use transform="rotate(0) scale(0.8)" x="13" y="40" xlink:href="#hearts"/>
            <use transform="rotate(180) scale(0.8)" x="-87" y="-100" xlink:href="#hearts"/>
            <use transform="rotate(0) scale(3.2)" x="12.65" y="25" xlink:href="#hearts"/>
            <text transform="rotate(0) scale(0.8)" text-anchor="middle" x="13" y="22" fill="red">6</text>
            <text transform="rotate(180) scale(0.8)"  text-anchor="middle" x="-87" y="-118" fill="red">6</text>    
        </g>
        <g id="7_hearts" viewBox="0 0 80 120">
            <use x="0" y="0" xlink:href="#empty_card"/>
            <use x="18" y="20" xlink:href="#center_card"/>
            <use transform="rotate(0) scale(0.8)" x="13" y="40" xlink:href="#hearts"/>
            <use transform="rotate(180) scale(0.8)" x="-87" y="-100" xlink:href="#hearts"/>
            <use transform="rotate(0) scale(3.2)" x="12.65" y="25" xlink:href="#hearts"/>
            <text transform="rotate(0) scale(0.8)" text-anchor="middle" x="13" y="22" fill="red">7</text>
            <text transform="rotate(180) scale(0.8)"  text-anchor="middle" x="-87" y="-118" fill="red">7</text>    
        </g>
        <g id="8_hearts" viewBox="0 0 80 120">
            <use x="0" y="0" xlink:href="#empty_card"/>
            <use x="18" y="20" xlink:href="#center_card"/>
            <use transform="rotate(0) scale(0.8)" x="13" y="40" xlink:href="#hearts"/>
            <use transform="rotate(180) scale(0.8)" x="-87" y="-100" xlink:href="#hearts"/>
            <use transform="rotate(0) scale(3.2)" x="12.65" y="25" xlink:href="#hearts"/>
            <text transform="rotate(0) scale(0.8)" text-anchor="middle" x="13" y="22" fill="red">8</text>
            <text transform="rotate(180) scale(0.8)"  text-anchor="middle" x="-87" y="-118" fill="red">8</text>    
        </g>
        <g id="9_hearts" viewBox="0 0 80 120">
            <use x="0" y="0" xlink:href="#empty_card"/>
            <use x="18" y="20" xlink:href="#center_card"/>
            <use transform="rotate(0) scale(0.8)" x="13" y="40" xlink:href="#hearts"/>
            <use transform="rotate(180) scale(0.8)" x="-87" y="-100" xlink:href="#hearts"/>
            <use transform="rotate(0) scale(3.2)" x="12.65" y="25" xlink:href="#hearts"/>
            <text transform="rotate(0) scale(0.8)" text-anchor="middle" x="13" y="22" fill="red">9</text>
            <text transform="rotate(180) scale(0.8)"  text-anchor="middle" x="-87" y="-118" fill="red">9</text>    
        </g>
        
        <g id="10_hearts" viewBox="0 0 80 120">
            <use x="0" y="0" xlink:href="#empty_card"/>
            <use x="18" y="20" xlink:href="#center_card"/>
            <use transform="rotate(0) scale(0.8)" x="13" y="40" xlink:href="#hearts"/>
            <use transform="rotate(180) scale(0.8)" x="-87" y="-100" xlink:href="#hearts"/>
            <use transform="rotate(0) scale(3.2)" x="12.65" y="25" xlink:href="#hearts"/>
            <text transform="rotate(0) scale(0.8)" text-anchor="middle" x="13" y="22" fill="red">10</text>
            <text transform="rotate(180) scale(0.8)"  text-anchor="middle" x="-87" y="-118" fill="red">10</text>    
        </g>
        
        
        <g id="queen_hearts" viewBox="0 0 80 120">
            <use x="0" y="0" xlink:href="#empty_card"/>
            <use x="18" y="20" xlink:href="#center_card"/>
            <use transform="rotate(0) scale(0.8)" x="13" y="40" xlink:href="#hearts"/>
            <use transform="rotate(180) scale(0.8)" x="-87" y="-100" xlink:href="#hearts"/>
            <text transform="rotate(0) scale(0.8)" text-anchor="middle" x="13" y="22" fill="red">D</text>
            <text transform="rotate(180) scale(0.8)"  text-anchor="middle" x="-87" y="-118" fill="red">D</text>
            <image x="13.5" y="15.5" width="54" height="81" xlink:href="dame.svg" />
        </g>
        
        <g id="jack_hearts" viewBox="0 0 80 120">
            <use x="0" y="0" xlink:href="#empty_card"/>
            <use x="18" y="20" xlink:href="#center_card"/>
            <use transform="rotate(0) scale(0.8)" x="13" y="40" xlink:href="#hearts"/>
            <use transform="rotate(180) scale(0.8)" x="-87" y="-100" xlink:href="#hearts"/>
            <text transform="rotate(0) scale(0.8)" text-anchor="middle" x="13" y="22" fill="red">B</text>
            <text transform="rotate(180) scale(0.8)"  text-anchor="middle" x="-87" y="-118" fill="red">B</text>
            <image x="13.5" y="15.5" width="54" height="81" xlink:href="junge.svg" />
        </g>
        
        <g id="king_hearts" viewBox="0 0 80 120">
            <use x="0" y="0" xlink:href="#empty_card"/>
            <use x="18" y="20" xlink:href="#center_card"/>
            <use transform="rotate(0) scale(0.8)" x="13" y="40" xlink:href="#hearts"/>
            <use transform="rotate(180) scale(0.8)" x="-87" y="-100" xlink:href="#hearts"/>
            <text transform="rotate(0) scale(0.8)" text-anchor="middle" x="13" y="22" fill="red">K</text>
            <text transform="rotate(180) scale(0.8)"  text-anchor="middle" x="-87" y="-118" fill="red">K</text>
            <image x="13.5" y="15.5" width="54" height="81" xlink:href="koenig.svg" />
        </g>
        
        
        <g id="A_diamonds" viewBox="0 0 80 120">
            <use x="0" y="0" xlink:href="#empty_card"/>
            <use x="18" y="20" xlink:href="#center_card"/>
            <use transform="rotate(0) scale(0.8)" x="13" y="40" xlink:href="#diamonds"/>
            <use transform="rotate(180) scale(0.8)" x="-87" y="-100" xlink:href="#diamonds"/>
            <use transform="rotate(0) scale(3.2)" x="12.65" y="25" xlink:href="#diamonds"/>
            <text transform="rotate(0) scale(0.8)" text-anchor="middle" x="13" y="22" fill="red">A</text>
            <text transform="rotate(180) scale(0.8)"  text-anchor="middle" x="-87" y="-118" fill="red">A</text>    
        </g>       
        <g id="2_diamonds" viewBox="0 0 80 120">
            <use x="0" y="0" xlink:href="#empty_card"/>
            <use x="18" y="20" xlink:href="#center_card"/>
            <use transform="rotate(0) scale(0.8)" x="13" y="40" xlink:href="#diamonds"/>
            <use transform="rotate(180) scale(0.8)" x="-87" y="-100" xlink:href="#diamonds"/>
            <use transform="rotate(0) scale(3.2)" x="12.65" y="25" xlink:href="#diamonds"/>
            <text transform="rotate(0) scale(0.8)" text-anchor="middle" x="13" y="22" fill="red">2</text>
            <text transform="rotate(180) scale(0.8)"  text-anchor="middle" x="-87" y="-118" fill="red">2</text>    
        </g>       
        <g id="3_diamonds" viewBox="0 0 80 120">
            <use x="0" y="0" xlink:href="#empty_card"/>
            <use x="18" y="20" xlink:href="#center_card"/>
            <use transform="rotate(0) scale(0.8)" x="13" y="40" xlink:href="#diamonds"/>
            <use transform="rotate(180) scale(0.8)" x="-87" y="-100" xlink:href="#diamonds"/>
            <use transform="rotate(0) scale(3.2)" x="12.65" y="25" xlink:href="#diamonds"/>
            <text transform="rotate(0) scale(0.8)" text-anchor="middle" x="13" y="22" fill="red">3</text>
            <text transform="rotate(180) scale(0.8)"  text-anchor="middle" x="-87" y="-118" fill="red">3</text>    
        </g>   
        <g id="4_diamonds" viewBox="0 0 80 120">
            <use x="0" y="0" xlink:href="#empty_card"/>
            <use x="18" y="20" xlink:href="#center_card"/>
            <use transform="rotate(0) scale(0.8)" x="13" y="40" xlink:href="#diamonds"/>
            <use transform="rotate(180) scale(0.8)" x="-87" y="-100" xlink:href="#diamonds"/>
            <use transform="rotate(0) scale(3.2)" x="12.65" y="25" xlink:href="#diamonds"/>
            <text transform="rotate(0) scale(0.8)" text-anchor="middle" x="13" y="22" fill="red">4</text>
            <text transform="rotate(180) scale(0.8)"  text-anchor="middle" x="-87" y="-118" fill="red">4</text>    
        </g>      
        <g id="5_diamonds" viewBox="0 0 80 120">
            <use x="0" y="0" xlink:href="#empty_card"/>
            <use x="18" y="20" xlink:href="#center_card"/>
            <use transform="rotate(0) scale(0.8)" x="13" y="40" xlink:href="#diamonds"/>
            <use transform="rotate(180) scale(0.8)" x="-87" y="-100" xlink:href="#diamonds"/>
            <use transform="rotate(0) scale(3.2)" x="12.65" y="25" xlink:href="#diamonds"/>
            <text transform="rotate(0) scale(0.8)" text-anchor="middle" x="13" y="22" fill="red">5</text>
            <text transform="rotate(180) scale(0.8)"  text-anchor="middle" x="-87" y="-118" fill="red">5</text>    
        </g>       
        <g id="6_diamonds" viewBox="0 0 80 120">
            <use x="0" y="0" xlink:href="#empty_card"/>
            <use x="18" y="20" xlink:href="#center_card"/>
            <use transform="rotate(0) scale(0.8)" x="13" y="40" xlink:href="#diamonds"/>
            <use transform="rotate(180) scale(0.8)" x="-87" y="-100" xlink:href="#diamonds"/>
            <use transform="rotate(0) scale(3.2)" x="12.65" y="25" xlink:href="#diamonds"/>
            <text transform="rotate(0) scale(0.8)" text-anchor="middle" x="13" y="22" fill="red">6</text>
            <text transform="rotate(180) scale(0.8)"  text-anchor="middle" x="-87" y="-118" fill="red">6</text>    
        </g>       
        <g id="7_diamonds" viewBox="0 0 80 120">
            <use x="0" y="0" xlink:href="#empty_card"/>
            <use x="18" y="20" xlink:href="#center_card"/>
            <use transform="rotate(0) scale(0.8)" x="13" y="40" xlink:href="#diamonds"/>
            <use transform="rotate(180) scale(0.8)" x="-87" y="-100" xlink:href="#diamonds"/>
            <use transform="rotate(0) scale(3.2)" x="12.65" y="25" xlink:href="#diamonds"/>
            <text transform="rotate(0) scale(0.8)" text-anchor="middle" x="13" y="22" fill="red">7</text>
            <text transform="rotate(180) scale(0.8)"  text-anchor="middle" x="-87" y="-118" fill="red">7</text>    
        </g>      
        <g id="8_diamonds" viewBox="0 0 80 120">
            <use x="0" y="0" xlink:href="#empty_card"/>
            <use x="18" y="20" xlink:href="#center_card"/>
            <use transform="rotate(0) scale(0.8)" x="13" y="40" xlink:href="#diamonds"/>
            <use transform="rotate(180) scale(0.8)" x="-87" y="-100" xlink:href="#diamonds"/>
            <use transform="rotate(0) scale(3.2)" x="12.65" y="25" xlink:href="#diamonds"/>
            <text transform="rotate(0) scale(0.8)" text-anchor="middle" x="13" y="22" fill="red">8</text>
            <text transform="rotate(180) scale(0.8)"  text-anchor="middle" x="-87" y="-118" fill="red">8</text>    
        </g>
        <g id="9_diamonds" viewBox="0 0 80 120">
            <use x="0" y="0" xlink:href="#empty_card"/>
            <use x="18" y="20" xlink:href="#center_card"/>
            <use transform="rotate(0) scale(0.8)" x="13" y="40" xlink:href="#diamonds"/>
            <use transform="rotate(180) scale(0.8)" x="-87" y="-100" xlink:href="#diamonds"/>
            <use transform="rotate(0) scale(3.2)" x="12.65" y="25" xlink:href="#diamonds"/>
            <text transform="rotate(0) scale(0.8)" text-anchor="middle" x="13" y="22" fill="red">9</text>
            <text transform="rotate(180) scale(0.8)"  text-anchor="middle" x="-87" y="-118" fill="red">9</text>    
        </g>      
        <g id="10_diamonds" viewBox="0 0 80 120">
            <use x="0" y="0" xlink:href="#empty_card"/>
            <use x="18" y="20" xlink:href="#center_card"/>
            <use transform="rotate(0) scale(0.8)" x="13" y="40" xlink:href="#diamonds"/>
            <use transform="rotate(180) scale(0.8)" x="-87" y="-100" xlink:href="#diamonds"/>
            <use transform="rotate(0) scale(3.2)" x="12.65" y="25" xlink:href="#diamonds"/>
            <text transform="rotate(0) scale(0.8)" text-anchor="middle" x="13" y="22" fill="red">10</text>
            <text transform="rotate(180) scale(0.8)"  text-anchor="middle" x="-87" y="-118" fill="red">10</text>    
        </g>
        
        <g id="jack_diamonds" viewBox="0 0 80 120">
            <use x="0" y="0" xlink:href="#empty_card"/>
            <use x="18" y="20" xlink:href="#center_card"/>
            <use transform="rotate(0) scale(0.8)" x="13" y="40" xlink:href="#diamonds"/>
            <use transform="rotate(180) scale(0.8)" x="-87" y="-100" xlink:href="#diamonds"/>
            <text transform="rotate(0) scale(0.8)" text-anchor="middle" x="13" y="22" fill="red">B</text>
            <text transform="rotate(180) scale(0.8)"  text-anchor="middle" x="-87" y="-118" fill="red">B</text>    
            <image x="13.5" y="15.5" width="54" height="81" xlink:href="junge.svg" />
        </g>
        <g id="queen_diamonds" viewBox="0 0 80 120">
            <use x="0" y="0" xlink:href="#empty_card"/>
            <use x="18" y="20" xlink:href="#center_card"/>
            <use transform="rotate(0) scale(0.8)" x="13" y="40" xlink:href="#diamonds"/>
            <use transform="rotate(180) scale(0.8)" x="-87" y="-100" xlink:href="#diamonds"/>
            <text transform="rotate(0) scale(0.8)" text-anchor="middle" x="13" y="22" fill="red">D</text>
            <text transform="rotate(180) scale(0.8)"  text-anchor="middle" x="-87" y="-118" fill="red">D</text>    
            <image x="13.5" y="15.5" width="54" height="81" xlink:href="dame.svg" />
        </g>
        <g id="king_diamonds" viewBox="0 0 80 120">
            <use x="0" y="0" xlink:href="#empty_card"/>
            <use x="18" y="20" xlink:href="#center_card"/>
            <use transform="rotate(0) scale(0.8)" x="13" y="40" xlink:href="#diamonds"/>
            <use transform="rotate(180) scale(0.8)" x="-87" y="-100" xlink:href="#diamonds"/>
            <text transform="rotate(0) scale(0.8)" text-anchor="middle" x="13" y="22" fill="red">K</text>
            <text transform="rotate(180) scale(0.8)"  text-anchor="middle" x="-87" y="-118" fill="red">K</text>    
            <image x="13.5" y="15.5" width="54" height="81" xlink:href="koenig.svg" />
        </g>
        
        
        <g id="A_clubs" viewBox="0 0 80 120">
            <use x="0" y="0" xlink:href="#empty_card"/>
            <use x="18" y="20" xlink:href="#center_card"/>
            <use transform="rotate(0) scale(0.8)" x="13" y="40" xlink:href="#clubs"/>
            <use transform="rotate(180) scale(0.8)" x="-87" y="-100" xlink:href="#clubs"/>
            <use transform="rotate(0) scale(3.2)" x="12.65" y="25" xlink:href="#clubs"/>
            <text transform="rotate(0) scale(0.8)" text-anchor="middle" x="13" y="22" fill="black">A</text>
            <text transform="rotate(180) scale(0.8)"  text-anchor="middle" x="-87" y="-118" fill="black">A</text>    
        </g>
        <g id="2_clubs" viewBox="0 0 80 120">
            <use x="0" y="0" xlink:href="#empty_card"/>
            <use x="18" y="20" xlink:href="#center_card"/>
            <use transform="rotate(0) scale(0.8)" x="13" y="40" xlink:href="#clubs"/>
            <use transform="rotate(180) scale(0.8)" x="-87" y="-100" xlink:href="#clubs"/>
            <use transform="rotate(0) scale(3.2)" x="12.65" y="25" xlink:href="#clubs"/>
            <text transform="rotate(0) scale(0.8)" text-anchor="middle" x="13" y="22" fill="black">2</text>
            <text transform="rotate(180) scale(0.8)"  text-anchor="middle" x="-87" y="-118" fill="black">2</text>    
        </g>
        <g id="3_clubs" viewBox="0 0 80 120">
            <use x="0" y="0" xlink:href="#empty_card"/>
            <use x="18" y="20" xlink:href="#center_card"/>
            <use transform="rotate(0) scale(0.8)" x="13" y="40" xlink:href="#clubs"/>
            <use transform="rotate(180) scale(0.8)" x="-87" y="-100" xlink:href="#clubs"/>
            <use transform="rotate(0) scale(3.2)" x="12.65" y="25" xlink:href="#clubs"/>
            <text transform="rotate(0) scale(0.8)" text-anchor="middle" x="13" y="22" fill="black">3</text>
            <text transform="rotate(180) scale(0.8)"  text-anchor="middle" x="-87" y="-118" fill="black">3</text>    
        </g>
        <g id="4_clubs" viewBox="0 0 80 120">
            <use x="0" y="0" xlink:href="#empty_card"/>
            <use x="18" y="20" xlink:href="#center_card"/>
            <use transform="rotate(0) scale(0.8)" x="13" y="40" xlink:href="#clubs"/>
            <use transform="rotate(180) scale(0.8)" x="-87" y="-100" xlink:href="#clubs"/>
            <use transform="rotate(0) scale(3.2)" x="12.65" y="25" xlink:href="#clubs"/>
            <text transform="rotate(0) scale(0.8)" text-anchor="middle" x="13" y="22" fill="black">4</text>
            <text transform="rotate(180) scale(0.8)"  text-anchor="middle" x="-87" y="-118" fill="black">4</text>    
        </g>
        <g id="5_clubs" viewBox="0 0 80 120">
            <use x="0" y="0" xlink:href="#empty_card"/>
            <use x="18" y="20" xlink:href="#center_card"/>
            <use transform="rotate(0) scale(0.8)" x="13" y="40" xlink:href="#clubs"/>
            <use transform="rotate(180) scale(0.8)" x="-87" y="-100" xlink:href="#clubs"/>
            <use transform="rotate(0) scale(3.2)" x="12.65" y="25" xlink:href="#clubs"/>
            <text transform="rotate(0) scale(0.8)" text-anchor="middle" x="13" y="22" fill="black">5</text>
            <text transform="rotate(180) scale(0.8)"  text-anchor="middle" x="-87" y="-118" fill="black">5</text>    
        </g>
        <g id="6_clubs" viewBox="0 0 80 120">
            <use x="0" y="0" xlink:href="#empty_card"/>
            <use x="18" y="20" xlink:href="#center_card"/>
            <use transform="rotate(0) scale(0.8)" x="13" y="40" xlink:href="#clubs"/>
            <use transform="rotate(180) scale(0.8)" x="-87" y="-100" xlink:href="#clubs"/>
            <use transform="rotate(0) scale(3.2)" x="12.65" y="25" xlink:href="#clubs"/>
            <text transform="rotate(0) scale(0.8)" text-anchor="middle" x="13" y="22" fill="black">6</text>
            <text transform="rotate(180) scale(0.8)"  text-anchor="middle" x="-87" y="-118" fill="black">6</text>    
        </g>
        <g id="7_clubs" viewBox="0 0 80 120">
            <use x="0" y="0" xlink:href="#empty_card"/>
            <use x="18" y="20" xlink:href="#center_card"/>
            <use transform="rotate(0) scale(0.8)" x="13" y="40" xlink:href="#clubs"/>
            <use transform="rotate(180) scale(0.8)" x="-87" y="-100" xlink:href="#clubs"/>
            <use transform="rotate(0) scale(3.2)" x="12.65" y="25" xlink:href="#clubs"/>
            <text transform="rotate(0) scale(0.8)" text-anchor="middle" x="13" y="22" fill="black">7</text>
            <text transform="rotate(180) scale(0.8)"  text-anchor="middle" x="-87" y="-118" fill="black">7</text>    
        </g>
        <g id="8_clubs" viewBox="0 0 80 120">
            <use x="0" y="0" xlink:href="#empty_card"/>
            <use x="18" y="20" xlink:href="#center_card"/>
            <use transform="rotate(0) scale(0.8)" x="13" y="40" xlink:href="#clubs"/>
            <use transform="rotate(180) scale(0.8)" x="-87" y="-100" xlink:href="#clubs"/>
            <use transform="rotate(0) scale(3.2)" x="12.65" y="25" xlink:href="#clubs"/>
            <text transform="rotate(0) scale(0.8)" text-anchor="middle" x="13" y="22" fill="black">8</text>
            <text transform="rotate(180) scale(0.8)"  text-anchor="middle" x="-87" y="-118" fill="black">8</text>    
        </g>
        <g id="9_clubs" viewBox="0 0 80 120">
            <use x="0" y="0" xlink:href="#empty_card"/>
            <use x="18" y="20" xlink:href="#center_card"/>
            <use transform="rotate(0) scale(0.8)" x="13" y="40" xlink:href="#clubs"/>
            <use transform="rotate(180) scale(0.8)" x="-87" y="-100" xlink:href="#clubs"/>
            <use transform="rotate(0) scale(3.2)" x="12.65" y="25" xlink:href="#clubs"/>
            <text transform="rotate(0) scale(0.8)" text-anchor="middle" x="13" y="22" fill="black">9</text>
            <text transform="rotate(180) scale(0.8)"  text-anchor="middle" x="-87" y="-118" fill="black">9</text>    
        </g>
        <g id="10_clubs" viewBox="0 0 80 120">
            <use x="0" y="0" xlink:href="#empty_card"/>
            <use x="18" y="20" xlink:href="#center_card"/>
            <use transform="rotate(0) scale(0.8)" x="13" y="40" xlink:href="#clubs"/>
            <use transform="rotate(180) scale(0.8)" x="-87" y="-100" xlink:href="#clubs"/>
            <use transform="rotate(0) scale(3.2)" x="12.65" y="25" xlink:href="#clubs"/>
            <text transform="rotate(0) scale(0.8)" text-anchor="middle" x="13" y="22" fill="black">10</text>
            <text transform="rotate(180) scale(0.8)"  text-anchor="middle" x="-87" y="-118" fill="black">10</text>    
        </g>
        <g id="jack_clubs" viewBox="0 0 80 120">
            <use x="0" y="0" xlink:href="#empty_card"/>
            <use x="18" y="20" xlink:href="#center_card"/>
            <use transform="rotate(0) scale(0.8)" x="13" y="40" xlink:href="#clubs"/>
            <use transform="rotate(180) scale(0.8)" x="-87" y="-100" xlink:href="#clubs"/>
            <text transform="rotate(0) scale(0.8)" text-anchor="middle" x="13" y="22" fill="black">B</text>
            <text transform="rotate(180) scale(0.8)"  text-anchor="middle" x="-87" y="-118" fill="black">B</text>   
            <image x="13.5" y="15.5" width="54" height="81" xlink:href="junge.svg" />
        </g>
        <g id="queen_clubs" viewBox="0 0 80 120">
            <use x="0" y="0" xlink:href="#empty_card"/>
            <use x="18" y="20" xlink:href="#center_card"/>
            <use transform="rotate(0) scale(0.8)" x="13" y="40" xlink:href="#clubs"/>
            <use transform="rotate(180) scale(0.8)" x="-87" y="-100" xlink:href="#clubs"/>
            <text transform="rotate(0) scale(0.8)" text-anchor="middle" x="13" y="22" fill="black">D</text>
            <text transform="rotate(180) scale(0.8)"  text-anchor="middle" x="-87" y="-118" fill="black">D</text>   
            <image x="13.5" y="15.5" width="54" height="81" xlink:href="dame.svg" />
        </g>
        <g id="king_clubs" viewBox="0 0 80 120">
            <use x="0" y="0" xlink:href="#empty_card"/>
            <use x="18" y="20" xlink:href="#center_card"/>
            <use transform="rotate(0) scale(0.8)" x="13" y="40" xlink:href="#clubs"/>
            <use transform="rotate(180) scale(0.8)" x="-87" y="-100" xlink:href="#clubs"/>
            <text transform="rotate(0) scale(0.8)" text-anchor="middle" x="13" y="22" fill="black">K</text>
            <text transform="rotate(180) scale(0.8)"  text-anchor="middle" x="-87" y="-118" fill="black">K</text>   
            <image x="13.5" y="15.5" width="54" height="81" xlink:href="koenig.svg" />
        </g>
      
        <g id="A_spades" viewBox="0 0 80 120">
            <use x="0" y="0" xlink:href="#empty_card"/>
            <use x="18" y="20" xlink:href="#center_card"/>
            <use transform="rotate(0) scale(0.8)" x="13" y="40" xlink:href="#spades"/>
            <use transform="rotate(180) scale(0.8)" x="-87" y="-100" xlink:href="#spades"/>
            <use transform="rotate(0) scale(3.2)" x="12.65" y="25" xlink:href="#spades"/>
            <text transform="rotate(0) scale(0.8)" text-anchor="middle" x="13" y="22" fill="black">A</text>
            <text transform="rotate(180) scale(0.8)"  text-anchor="middle" x="-87" y="-118" fill="black">A</text>    
        </g>
        <g id="2_spades" viewBox="0 0 80 120">
            <use x="0" y="0" xlink:href="#empty_card"/>
            <use x="18" y="20" xlink:href="#center_card"/>
            <use transform="rotate(0) scale(0.8)" x="13" y="40" xlink:href="#spades"/>
            <use transform="rotate(180) scale(0.8)" x="-87" y="-100" xlink:href="#spades"/>
            <use transform="rotate(0) scale(3.2)" x="12.65" y="25" xlink:href="#spades"/>
            <text transform="rotate(0) scale(0.8)" text-anchor="middle" x="13" y="22" fill="black">2</text>
            <text transform="rotate(180) scale(0.8)"  text-anchor="middle" x="-87" y="-118" fill="black">2</text>    
        </g>
        <g id="3_spades" viewBox="0 0 80 120">
            <use x="0" y="0" xlink:href="#empty_card"/>
            <use x="18" y="20" xlink:href="#center_card"/>
            <use transform="rotate(0) scale(0.8)" x="13" y="40" xlink:href="#spades"/>
            <use transform="rotate(180) scale(0.8)" x="-87" y="-100" xlink:href="#spades"/>
            <use transform="rotate(0) scale(3.2)" x="12.65" y="25" xlink:href="#spades"/>
            <text transform="rotate(0) scale(0.8)" text-anchor="middle" x="13" y="22" fill="black">3</text>
            <text transform="rotate(180) scale(0.8)"  text-anchor="middle" x="-87" y="-118" fill="black">3</text>    
        </g>
        <g id="4_spades" viewBox="0 0 80 120">
            <use x="0" y="0" xlink:href="#empty_card"/>
            <use x="18" y="20" xlink:href="#center_card"/>
            <use transform="rotate(0) scale(0.8)" x="13" y="40" xlink:href="#spades"/>
            <use transform="rotate(180) scale(0.8)" x="-87" y="-100" xlink:href="#spades"/>
            <use transform="rotate(0) scale(3.2)" x="12.65" y="25" xlink:href="#spades"/>
            <text transform="rotate(0) scale(0.8)" text-anchor="middle" x="13" y="22" fill="black">4</text>
            <text transform="rotate(180) scale(0.8)"  text-anchor="middle" x="-87" y="-118" fill="black">4</text>    
        </g>
        <g id="5_spades" viewBox="0 0 80 120">
            <use x="0" y="0" xlink:href="#empty_card"/>
            <use x="18" y="20" xlink:href="#center_card"/>
            <use transform="rotate(0) scale(0.8)" x="13" y="40" xlink:href="#spades"/>
            <use transform="rotate(180) scale(0.8)" x="-87" y="-100" xlink:href="#spades"/>
            <use transform="rotate(0) scale(3.2)" x="12.65" y="25" xlink:href="#spades"/>
            <text transform="rotate(0) scale(0.8)" text-anchor="middle" x="13" y="22" fill="black">5</text>
            <text transform="rotate(180) scale(0.8)"  text-anchor="middle" x="-87" y="-118" fill="black">5</text>    
        </g>
        <g id="6_spades" viewBox="0 0 80 120">
            <use x="0" y="0" xlink:href="#empty_card"/>
            <use x="18" y="20" xlink:href="#center_card"/>
            <use transform="rotate(0) scale(0.8)" x="13" y="40" xlink:href="#spades"/>
            <use transform="rotate(180) scale(0.8)" x="-87" y="-100" xlink:href="#spades"/>
            <use transform="rotate(0) scale(3.2)" x="12.65" y="25" xlink:href="#spades"/>
            <text transform="rotate(0) scale(0.8)" text-anchor="middle" x="13" y="22" fill="black">6</text>
            <text transform="rotate(180) scale(0.8)"  text-anchor="middle" x="-87" y="-118" fill="black">6</text>    
        </g>
        <g id="7_spades" viewBox="0 0 80 120">
            <use x="0" y="0" xlink:href="#empty_card"/>
            <use x="18" y="20" xlink:href="#center_card"/>
            <use transform="rotate(0) scale(0.8)" x="13" y="40" xlink:href="#spades"/>
            <use transform="rotate(180) scale(0.8)" x="-87" y="-100" xlink:href="#spades"/>
            <use transform="rotate(0) scale(3.2)" x="12.65" y="25" xlink:href="#spades"/>
            <text transform="rotate(0) scale(0.8)" text-anchor="middle" x="13" y="22" fill="black">7</text>
            <text transform="rotate(180) scale(0.8)"  text-anchor="middle" x="-87" y="-118" fill="black">7</text>    
        </g>
        <g id="8_spades" viewBox="0 0 80 120">
            <use x="0" y="0" xlink:href="#empty_card"/>
            <use x="18" y="20" xlink:href="#center_card"/>
            <use transform="rotate(0) scale(0.8)" x="13" y="40" xlink:href="#spades"/>
            <use transform="rotate(180) scale(0.8)" x="-87" y="-100" xlink:href="#spades"/>
            <use transform="rotate(0) scale(3.2)" x="12.65" y="25" xlink:href="#spades"/>
            <text transform="rotate(0) scale(0.8)" text-anchor="middle" x="13" y="22" fill="black">8</text>
            <text transform="rotate(180) scale(0.8)"  text-anchor="middle" x="-87" y="-118" fill="black">8</text>    
        </g>
        <g id="9_spades" viewBox="0 0 80 120">
            <use x="0" y="0" xlink:href="#empty_card"/>
            <use x="18" y="20" xlink:href="#center_card"/>
            <use transform="rotate(0) scale(0.8)" x="13" y="40" xlink:href="#spades"/>
            <use transform="rotate(180) scale(0.8)" x="-87" y="-100" xlink:href="#spades"/>
            <use transform="rotate(0) scale(3.2)" x="12.65" y="25" xlink:href="#spades"/>
            <text transform="rotate(0) scale(0.8)" text-anchor="middle" x="13" y="22" fill="black">9</text>
            <text transform="rotate(180) scale(0.8)"  text-anchor="middle" x="-87" y="-118" fill="black">9</text>    
        </g>
        <g id="10_spades" viewBox="0 0 80 120">
            <use x="0" y="0" xlink:href="#empty_card"/>
            <use x="18" y="20" xlink:href="#center_card"/>
            <use transform="rotate(0) scale(0.8)" x="13" y="40" xlink:href="#spades"/>
            <use transform="rotate(180) scale(0.8)" x="-87" y="-100" xlink:href="#spades"/>
            <use transform="rotate(0) scale(3.2)" x="12.65" y="25" xlink:href="#spades"/>
            <text transform="rotate(0) scale(0.8)" text-anchor="middle" x="13" y="22" fill="black">10</text>
            <text transform="rotate(180) scale(0.8)"  text-anchor="middle" x="-87" y="-118" fill="black">10</text>    
        </g>
        <g id="jack_spades" viewBox="0 0 80 120">
            <use x="0" y="0" xlink:href="#empty_card"/>
            <use x="18" y="20" xlink:href="#center_card"/>
            <use transform="rotate(0) scale(0.8)" x="13" y="40" xlink:href="#spades"/>
            <use transform="rotate(180) scale(0.8)" x="-87" y="-100" xlink:href="#spades"/>
            <text transform="rotate(0) scale(0.8)" text-anchor="middle" x="13" y="22" fill="black">B</text>
            <text transform="rotate(180) scale(0.8)"  text-anchor="middle" x="-87" y="-118" fill="black">B</text>    
            <image x="13.5" y="15.5" width="54" height="81" xlink:href="junge.svg" />
        </g>
        <g id="queen_spades" viewBox="0 0 80 120">
            <use x="0" y="0" xlink:href="#empty_card"/>
            <use x="18" y="20" xlink:href="#center_card"/>
            <use transform="rotate(0) scale(0.8)" x="13" y="40" xlink:href="#spades"/>
            <use transform="rotate(180) scale(0.8)" x="-87" y="-100" xlink:href="#spades"/>
            <text transform="rotate(0) scale(0.8)" text-anchor="middle" x="13" y="22" fill="black">D</text>
            <text transform="rotate(180) scale(0.8)"  text-anchor="middle" x="-87" y="-118" fill="black">D</text>    
            <image x="13.5" y="15.5" width="54" height="81" xlink:href="dame.svg" />
        </g>
        <g id="king_spades" viewBox="0 0 80 120">
            <use x="0" y="0" xlink:href="#empty_card"/>
            <use x="18" y="20" xlink:href="#center_card"/>
            <use transform="rotate(0) scale(0.8)" x="13" y="40" xlink:href="#spades"/>
            <use transform="rotate(180) scale(0.8)" x="-87" y="-100" xlink:href="#spades"/>
            <text transform="rotate(0) scale(0.8)" text-anchor="middle" x="13" y="22" fill="black">K</text>
            <text transform="rotate(180) scale(0.8)"  text-anchor="middle" x="-87" y="-118" fill="black">K</text>    
            <image x="13.5" y="15.5" width="54" height="81" xlink:href="koenig.svg" />
        </g>
        
      
  
    </defs>
    <use xlink:href="#A_hearts" transform="translate(20, 20)"/>
    <use xlink:href="#2_hearts" transform="translate(120, 20)"/>
    <use xlink:href="#3_hearts" transform="translate(220, 20)"/>
    <use xlink:href="#4_hearts" transform="translate(320, 20)"/>
    <use xlink:href="#5_diamonds" transform="translate(20, 150)"/>
    <use xlink:href="#6_diamonds" transform="translate(120, 150)"/>
    <use xlink:href="#7_diamonds" transform="translate(220, 150)"/>
    <use xlink:href="#8_diamonds" transform="translate(320, 150)"/>
    <use xlink:href="#9_clubs" transform="translate(20, 280)"/>
    <use xlink:href="#10_clubs" transform="translate(120, 280)"/>
    <use xlink:href="#jack_clubs" transform="translate(220, 280)"/>
    <use xlink:href="#queen_clubs" transform="translate(320, 280)"/>
    <use xlink:href="#king_spades" transform="translate(20, 400)"/>
    <use xlink:href="#A_spades" transform="translate(120, 400)"/>
    <use xlink:href="#2_spades" transform="translate(220, 400)"/>
    <use xlink:href="#3_spades" transform="translate(320, 400)"/>
    <use xlink:href="#backside" transform="translate(420, 200)"/>
    
</svg>