<?xml version="1.0" encoding="UTF-8"?>
<!DOCTYPE svg PUBLIC "-//W3C//DTD SVG 1.1//EN" "http://www.w3.org/Graphics/SVG/1.1/DTD/svg11.dtd"[
    <!ENTITY boxRadius "10">
<!ENTITY tableColor "#5e995e">
<!ENTITY secondaryColor "#c5ebc5">
<!ENTITY backColor "darkred">
]>
<svg xmlns="http://www.w3.org/2000/svg" 
    xmlns:xlink="http://www.w3.org/1999/xlink" version="1.1" width="100%" height="100%">
    <defs>
        <style>
        * {
            font-size: 24px;
            font-weight: bold;
            font-family: Helvetica, sans-serif;
        }

        .checker-background {
            fill: white;
        }

        .checker {
            fill: &backColor;;
        }

        svg {
            background-color: #212224;
        }

        .chip-1 {
            fill: grey;
        }

        .chip-5 {
            fill: red;
        }

        .chip-10 {
            fill: lightblue;
        }

        .chip-25 {
            fill: green;
        }

        .chip-100 {
            fill: black;
        }

        #table text {
            font-family: Helvetica, sans-serif;
            fill: &secondaryColor;;
            text-transform: uppercase;
        }

        .heavy { 
            font-weight: bold;
            font-size: 50px;
        }

        .small {
            font-size: 24px;
        }

        .btn {
            fill: url(#gradient-orange);
            cursor: pointer;
        }

        .btn text {
            fill: white;
            font-size: 24px;
            font-family: sans-serif;
            text-transform: uppercase;
        }

        .btn:hover {
            transform: scale(1.1);
        }
        </style>

        <!-- Copying all defs because chrome doesn't support external svg references -->

        <rect id="box" x="360" y="320" width="80" height="80" rx="50" ry="50" fill="transparent" stroke="&secondaryColor;" stroke-width="5"/>
        <path id="curve" d="M 150 150
                Q 400 380, 650 150" />
        <g id="boxgroup">
            <use xlink:href="#box" transform="rotate(40, 400, -80)"/>
            <use xlink:href="#box" transform="rotate(20, 400, -80)"/>
            <use xlink:href="#box"/>
            <use xlink:href="#box" transform="rotate(-20, 400, -80)"/>
            <use xlink:href="#box" transform="rotate(-40, 400, -80)"/>
        </g>

        <path id="tableBase" fill="&tableColor;" d="M 0 0
                V 225
                A 400 225 0 0 0 800 225 
                V 0
                Z"/>

        <g id="table">
            <use xlink:href="#tableBase"/>
            <use xlink:href="#boxgroup"/>

            <text x="400" y="100" class="heavy" text-anchor="middle">Blackjack</text>
            <text x="400" y="125" class="small" text-anchor="middle">pays 3 to 2</text>
            <text class="normal">
                <textPath xlink:href="#curve" startOffset="50%" text-anchor="middle">
        Insurance pays 2 to 1
                </textPath>
            </text>
        </g>
        <text id="clubs" fill="black" text-anchor="middle">♣</text>
        <text id="diamonds" fill="red" text-anchor="middle">♦</text>
        <text id="hearts" fill="red" text-anchor="middle">♥</text>
        <text id="spades" fill="black" text-anchor="middle">♠</text>
        <g id="A_hearts" viewBox="0 0 80 112">
            <rect width="80" height="112" rx="10" ry="10" fill="white" stroke="grey"/>
            <text text-anchor="middle" x="20" y="30" fill="red">A</text>
            <use x="20" y="60" xlink:href="#hearts"/>
        </g>
        <g id="2_hearts" viewBox="0 0 80 112">
            <rect width="80" height="112" rx="10" ry="10" fill="white" stroke="grey"/>
            <text text-anchor="middle" x="20" y="30" fill="red">2</text>
            <use x="20" y="60" xlink:href="#hearts"/>
        </g>
        <g id="3_hearts" viewBox="0 0 80 112">
            <rect width="80" height="112" rx="10" ry="10" fill="white" stroke="grey"/>
            <text text-anchor="middle" x="20" y="30" fill="red">3</text>
            <use x="20" y="60" xlink:href="#hearts"/>
        </g>
        <g id="4_hearts" viewBox="0 0 80 112">
            <rect width="80" height="112" rx="10" ry="10" fill="white" stroke="grey"/>
            <text text-anchor="middle" x="20" y="30" fill="red">4</text>
            <use x="20" y="60" xlink:href="#hearts"/>
        </g>
        <g id="5_hearts" viewBox="0 0 80 112">
            <rect width="80" height="112" rx="10" ry="10" fill="white" stroke="grey"/>
            <text text-anchor="middle" x="20" y="30" fill="red">5</text>
            <use x="20" y="60" xlink:href="#hearts"/>
        </g>
        <g id="6_hearts" viewBox="0 0 80 112">
            <rect width="80" height="112" rx="10" ry="10" fill="white" stroke="grey"/>
            <text text-anchor="middle" x="20" y="30" fill="red">6</text>
            <use x="20" y="60" xlink:href="#hearts"/>
        </g>
        <g id="7_hearts" viewBox="0 0 80 112">
            <rect width="80" height="112" rx="10" ry="10" fill="white" stroke="grey"/>
            <text text-anchor="middle" x="20" y="30" fill="red">7</text>
            <use x="20" y="60" xlink:href="#hearts"/>
        </g>
        <g id="8_hearts" viewBox="0 0 80 112">
            <rect width="80" height="112" rx="10" ry="10" fill="white" stroke="grey"/>
            <text text-anchor="middle" x="20" y="30" fill="red">8</text>
            <use x="20" y="60" xlink:href="#hearts"/>
        </g>
        <g id="9_hearts" viewBox="0 0 80 112">
            <rect width="80" height="112" rx="10" ry="10" fill="white" stroke="grey"/>
            <text text-anchor="middle" x="20" y="30" fill="red">9</text>
            <use x="20" y="60" xlink:href="#hearts"/>
        </g>
        <g id="10_hearts" viewBox="0 0 80 112">
            <rect width="80" height="112" rx="10" ry="10" fill="white" stroke="grey"/>
            <text text-anchor="middle" x="20" y="30" fill="red">10</text>
            <use x="20" y="60" xlink:href="#hearts"/>
        </g>
        <g id="B_hearts" viewBox="0 0 80 112">
            <rect width="80" height="112" rx="10" ry="10" fill="white" stroke="grey"/>
            <text text-anchor="middle" x="20" y="30" fill="red">B</text>
            <use x="20" y="60" xlink:href="#hearts"/>
        </g>
        <g id="D_hearts" viewBox="0 0 80 112">
            <rect width="80" height="112" rx="10" ry="10" fill="white" stroke="grey"/>
            <text text-anchor="middle" x="20" y="30" fill="red">D</text>
            <use x="20" y="60" xlink:href="#hearts"/>
        </g>
        <g id="K_hearts" viewBox="0 0 80 112">
            <rect width="80" height="112" rx="10" ry="10" fill="white" stroke="grey"/>
            <text text-anchor="middle" x="20" y="30" fill="red">K</text>
            <use x="20" y="60" xlink:href="#hearts"/>
        </g>
        <g id="A_diamonds" viewBox="0 0 80 112">
            <rect width="80" height="112" rx="10" ry="10" fill="white" stroke="grey"/>
            <text text-anchor="middle" x="20" y="30" fill="red">A</text>
            <use x="20" y="60" xlink:href="#diamonds"/>
        </g>
        <g id="2_diamonds" viewBox="0 0 80 112">
            <rect width="80" height="112" rx="10" ry="10" fill="white" stroke="grey"/>
            <text text-anchor="middle" x="20" y="30" fill="red">2</text>
            <use x="20" y="60" xlink:href="#diamonds"/>
        </g>
        <g id="3_diamonds" viewBox="0 0 80 112">
            <rect width="80" height="112" rx="10" ry="10" fill="white" stroke="grey"/>
            <text text-anchor="middle" x="20" y="30" fill="red">3</text>
            <use x="20" y="60" xlink:href="#diamonds"/>
        </g>
        <g id="4_diamonds" viewBox="0 0 80 112">
            <rect width="80" height="112" rx="10" ry="10" fill="white" stroke="grey"/>
            <text text-anchor="middle" x="20" y="30" fill="red">4</text>
            <use x="20" y="60" xlink:href="#diamonds"/>
        </g>
        <g id="5_diamonds" viewBox="0 0 80 112">
            <rect width="80" height="112" rx="10" ry="10" fill="white" stroke="grey"/>
            <text text-anchor="middle" x="20" y="30" fill="red">5</text>
            <use x="20" y="60" xlink:href="#diamonds"/>
        </g>
        <g id="6_diamonds" viewBox="0 0 80 112">
            <rect width="80" height="112" rx="10" ry="10" fill="white" stroke="grey"/>
            <text text-anchor="middle" x="20" y="30" fill="red">6</text>
            <use x="20" y="60" xlink:href="#diamonds"/>
        </g>
        <g id="7_diamonds" viewBox="0 0 80 112">
            <rect width="80" height="112" rx="10" ry="10" fill="white" stroke="grey"/>
            <text text-anchor="middle" x="20" y="30" fill="red">7</text>
            <use x="20" y="60" xlink:href="#diamonds"/>
        </g>
        <g id="8_diamonds" viewBox="0 0 80 112">
            <rect width="80" height="112" rx="10" ry="10" fill="white" stroke="grey"/>
            <text text-anchor="middle" x="20" y="30" fill="red">8</text>
            <use x="20" y="60" xlink:href="#diamonds"/>
        </g>
        <g id="9_diamonds" viewBox="0 0 80 112">
            <rect width="80" height="112" rx="10" ry="10" fill="white" stroke="grey"/>
            <text text-anchor="middle" x="20" y="30" fill="red">9</text>
            <use x="20" y="60" xlink:href="#diamonds"/>
        </g>
        <g id="10_diamonds" viewBox="0 0 80 112">
            <rect width="80" height="112" rx="10" ry="10" fill="white" stroke="grey"/>
            <text text-anchor="middle" x="20" y="30" fill="red">10</text>
            <use x="20" y="60" xlink:href="#diamonds"/>
        </g>
        <g id="B_diamonds" viewBox="0 0 80 112">
            <rect width="80" height="112" rx="10" ry="10" fill="white" stroke="grey"/>
            <text text-anchor="middle" x="20" y="30" fill="red">B</text>
            <use x="20" y="60" xlink:href="#diamonds"/>
        </g>
        <g id="D_diamonds" viewBox="0 0 80 112">
            <rect width="80" height="112" rx="10" ry="10" fill="white" stroke="grey"/>
            <text text-anchor="middle" x="20" y="30" fill="red">D</text>
            <use x="20" y="60" xlink:href="#diamonds"/>
        </g>
        <g id="K_diamonds" viewBox="0 0 80 112">
            <rect width="80" height="112" rx="10" ry="10" fill="white" stroke="grey"/>
            <text text-anchor="middle" x="20" y="30" fill="red">K</text>
            <use x="20" y="60" xlink:href="#diamonds"/>
        </g>
        <g id="A_clubs" viewBox="0 0 80 112">
            <rect width="80" height="112" rx="10" ry="10" fill="white" stroke="grey"/>
            <text text-anchor="middle" x="20" y="30" fill="black">A</text>
            <use x="20" y="60" xlink:href="#clubs"/>
        </g>
        <g id="2_clubs" viewBox="0 0 80 112">
            <rect width="80" height="112" rx="10" ry="10" fill="white" stroke="grey"/>
            <text text-anchor="middle" x="20" y="30" fill="black">2</text>
            <use x="20" y="60" xlink:href="#clubs"/>
        </g>
        <g id="3_clubs" viewBox="0 0 80 112">
            <rect width="80" height="112" rx="10" ry="10" fill="white" stroke="grey"/>
            <text text-anchor="middle" x="20" y="30" fill="black">3</text>
            <use x="20" y="60" xlink:href="#clubs"/>
        </g>
        <g id="4_clubs" viewBox="0 0 80 112">
            <rect width="80" height="112" rx="10" ry="10" fill="white" stroke="grey"/>
            <text text-anchor="middle" x="20" y="30" fill="black">4</text>
            <use x="20" y="60" xlink:href="#clubs"/>
        </g>
        <g id="5_clubs" viewBox="0 0 80 112">
            <rect width="80" height="112" rx="10" ry="10" fill="white" stroke="grey"/>
            <text text-anchor="middle" x="20" y="30" fill="black">5</text>
            <use x="20" y="60" xlink:href="#clubs"/>
        </g>
        <g id="6_clubs" viewBox="0 0 80 112">
            <rect width="80" height="112" rx="10" ry="10" fill="white" stroke="grey"/>
            <text text-anchor="middle" x="20" y="30" fill="black">6</text>
            <use x="20" y="60" xlink:href="#clubs"/>
        </g>
        <g id="7_clubs" viewBox="0 0 80 112">
            <rect width="80" height="112" rx="10" ry="10" fill="white" stroke="grey"/>
            <text text-anchor="middle" x="20" y="30" fill="black">7</text>
            <use x="20" y="60" xlink:href="#clubs"/>
        </g>
        <g id="8_clubs" viewBox="0 0 80 112">
            <rect width="80" height="112" rx="10" ry="10" fill="white" stroke="grey"/>
            <text text-anchor="middle" x="20" y="30" fill="black">8</text>
            <use x="20" y="60" xlink:href="#clubs"/>
        </g>
        <g id="9_clubs" viewBox="0 0 80 112">
            <rect width="80" height="112" rx="10" ry="10" fill="white" stroke="grey"/>
            <text text-anchor="middle" x="20" y="30" fill="black">9</text>
            <use x="20" y="60" xlink:href="#clubs"/>
        </g>
        <g id="10_clubs" viewBox="0 0 80 112">
            <rect width="80" height="112" rx="10" ry="10" fill="white" stroke="grey"/>
            <text text-anchor="middle" x="20" y="30" fill="black">10</text>
            <use x="20" y="60" xlink:href="#clubs"/>
        </g>
        <g id="B_clubs" viewBox="0 0 80 112">
            <rect width="80" height="112" rx="10" ry="10" fill="white" stroke="grey"/>
            <text text-anchor="middle" x="20" y="30" fill="black">B</text>
            <use x="20" y="60" xlink:href="#clubs"/>
        </g>
        <g id="D_clubs" viewBox="0 0 80 112">
            <rect width="80" height="112" rx="10" ry="10" fill="white" stroke="grey"/>
            <text text-anchor="middle" x="20" y="30" fill="black">D</text>
            <use x="20" y="60" xlink:href="#clubs"/>
        </g>
        <g id="K_clubs" viewBox="0 0 80 112">
            <rect width="80" height="112" rx="10" ry="10" fill="white" stroke="grey"/>
            <text text-anchor="middle" x="20" y="30" fill="black">K</text>
            <use x="20" y="60" xlink:href="#clubs"/>
        </g>
        <g id="A_spades" viewBox="0 0 80 112">
            <rect width="80" height="112" rx="10" ry="10" fill="white" stroke="grey"/>
            <text text-anchor="middle" x="20" y="30" fill="black">A</text>
            <use x="20" y="60" xlink:href="#spades"/>
        </g>
        <g id="2_spades" viewBox="0 0 80 112">
            <rect width="80" height="112" rx="10" ry="10" fill="white" stroke="grey"/>
            <text text-anchor="middle" x="20" y="30" fill="black">2</text>
            <use x="20" y="60" xlink:href="#spades"/>
        </g>
        <g id="3_spades" viewBox="0 0 80 112">
            <rect width="80" height="112" rx="10" ry="10" fill="white" stroke="grey"/>
            <text text-anchor="middle" x="20" y="30" fill="black">3</text>
            <use x="20" y="60" xlink:href="#spades"/>
        </g>
        <g id="4_spades" viewBox="0 0 80 112">
            <rect width="80" height="112" rx="10" ry="10" fill="white" stroke="grey"/>
            <text text-anchor="middle" x="20" y="30" fill="black">4</text>
            <use x="20" y="60" xlink:href="#spades"/>
        </g>
        <g id="5_spades" viewBox="0 0 80 112">
            <rect width="80" height="112" rx="10" ry="10" fill="white" stroke="grey"/>
            <text text-anchor="middle" x="20" y="30" fill="black">5</text>
            <use x="20" y="60" xlink:href="#spades"/>
        </g>
        <g id="6_spades" viewBox="0 0 80 112">
            <rect width="80" height="112" rx="10" ry="10" fill="white" stroke="grey"/>
            <text text-anchor="middle" x="20" y="30" fill="black">6</text>
            <use x="20" y="60" xlink:href="#spades"/>
        </g>
        <g id="7_spades" viewBox="0 0 80 112">
            <rect width="80" height="112" rx="10" ry="10" fill="white" stroke="grey"/>
            <text text-anchor="middle" x="20" y="30" fill="black">7</text>
            <use x="20" y="60" xlink:href="#spades"/>
        </g>
        <g id="8_spades" viewBox="0 0 80 112">
            <rect width="80" height="112" rx="10" ry="10" fill="white" stroke="grey"/>
            <text text-anchor="middle" x="20" y="30" fill="black">8</text>
            <use x="20" y="60" xlink:href="#spades"/>
        </g>
        <g id="9_spades" viewBox="0 0 80 112">
            <rect width="80" height="112" rx="10" ry="10" fill="white" stroke="grey"/>
            <text text-anchor="middle" x="20" y="30" fill="black">9</text>
            <use x="20" y="60" xlink:href="#spades"/>
        </g>
        <g id="10_spades" viewBox="0 0 80 112">
            <rect width="80" height="112" rx="10" ry="10" fill="white" stroke="grey"/>
            <text text-anchor="middle" x="20" y="30" fill="black">10</text>
            <use x="20" y="60" xlink:href="#spades"/>
        </g>
        <g id="B_spades" viewBox="0 0 80 112">
            <rect width="80" height="112" rx="10" ry="10" fill="white" stroke="grey"/>
            <text text-anchor="middle" x="20" y="30" fill="black">B</text>
            <use x="20" y="60" xlink:href="#spades"/>
        </g>
        <g id="D_spades" viewBox="0 0 80 112">
            <rect width="80" height="112" rx="10" ry="10" fill="white" stroke="grey"/>
            <text text-anchor="middle" x="20" y="30" fill="black">D</text>
            <use x="20" y="60" xlink:href="#spades"/>
        </g>
        <g id="K_spades" viewBox="0 0 80 112">
            <rect width="80" height="112" rx="10" ry="10" fill="white" stroke="grey"/>
            <text text-anchor="middle" x="20" y="30" fill="black">K</text>
            <use x="20" y="60" xlink:href="#spades"/>
        </g>

        <!-- back design, rueckseite -->
        <pattern id="pattern-checkers" viewBox="0,0,80,112" width="10%" height="10%">
            <rect class="checker-background" x="0" y="0" width="80" height="112"/>
            <rect class="checker" x="0" y="0" width="40" height="56"/>
            <rect class="checker" x="40" y="56" width="40" height="56"/>
        </pattern>

        <g id="back" viewBox="0 0 80 112">
            <rect width="80" height="112" rx="10" ry="10" fill="white" stroke="grey"/>
            <rect x="5" y="5" width="70" height="102" rx="5" ry="5" fill="url(#pattern-checkers)" stroke="&backColor;" stroke-width="3"/>
        </g>


        <path id="slice" d="
        M 1 0 
        A 1 1 0 0 1 0.7071067811865476 0.7071067811865475
        L 0 0"/>

        <symbol id="chip" class="chip" viewBox="-1 -1 2 2">
            <circle cx="0" cy="0" r="1" fill="white"/>
            <g class="slices">
                <use xlink:href="#slice" transform="rotate(22.5, 0, 0)"/>
                <use xlink:href="#slice" transform="rotate(112.5, 0, 0)"/>
                <use xlink:href="#slice" transform="rotate(202.5, 0, 0)"/>
                <use xlink:href="#slice" transform="rotate(292.5, 0, 0)"/>
            </g>
            <circle cx="0" cy="0" r="0.65" stroke="white" stroke-width="0.1"/>
        </symbol>

        <symbol id="chip-1" class="chip chip-1" viewBox="0 0 100 100">
            <use xlink:href="#chip" x="0" y="0" width="100" height="100"/>
            <text x="50" y="50" text-anchor="middle" alignment-baseline="central" fill="white" font-size="32">1</text>
        </symbol>

        <symbol id="chip-5" class="chip chip-5" viewBox="0 0 100 100">
            <use xlink:href="#chip" x="0" y="0" width="100" height="100"/>
            <text x="50" y="50" text-anchor="middle" alignment-baseline="central" fill="white" font-size="32">5</text>
        </symbol>

        <symbol id="chip-10" class="chip chip-10" viewBox="0 0 100 100">
            <use xlink:href="#chip" x="0" y="0" width="100" height="100"/>
            <text x="50" y="50" text-anchor="middle" alignment-baseline="central" fill="white" font-size="32">10</text>
        </symbol>

        <symbol id="chip-25" class="chip chip-25" viewBox="0 0 100 100">
            <use xlink:href="#chip" x="0" y="0" width="100" height="100"/>
            <text x="50" y="50" text-anchor="middle" alignment-baseline="central" fill="white" font-size="32">25</text>
        </symbol>

        <symbol id="chip-100" class="chip chip-100" viewBox="0 0 100 100">
            <use xlink:href="#chip" x="0" y="0" width="100" height="100"/>
            <text x="50" y="50" text-anchor="middle" alignment-baseline="central" fill="white" font-size="32">100</text>
        </symbol>


        <symbol id="btn">
            <rect width="100%" height="100%" rx="20" ry="50"/>
        </symbol>

        <linearGradient id="gradient-orange" x1="0%" y1="0%" x2="0%" y2="100%">
            <stop offset="0%" style="stop-color:#EC6A2A;stop-opacity:1" />
            <stop offset="100%" style="stop-color:#CE3206;stop-opacity:1" />
        </linearGradient>

        <symbol id="btn-hit" class="btn btn-hit">
            <use class="btn" xlink:href="#btn"/>
            <text text-anchor="middle" alignment-baseline="central" x="50%" y="50%">Hit</text>
        </symbol>

        <symbol id="btn-stand" class="btn btn-stand">
            <use class="btn" xlink:href="#btn"/>
            <text text-anchor="middle" alignment-baseline="central" x="50%" y="50%">Stand</text>
        </symbol>

    </defs>

    <use xlink:href="#table" x="560" y="0" width="70" height="70" />
    <g id="player1Cards" transform="translate(900, 415)">
        <use xlink:href="#D_diamonds" x="0" y="0"/>
        <use xlink:href="#3_hearts" x="40" y="10"/>
    </g>
    <g id="player2Cards" transform="translate(1100, 390)">
        <use xlink:href="#A_hearts" x="0" y="0"/>
        <use xlink:href="#K_clubs" x="40" y="10"/>

    </g>
    <g id="dealerCards" transform="translate(900, 80)">
        <use xlink:href="#back" x="0" y="0"/>
        <use xlink:href="#7_spades" x="40" y="10"/>
    </g>
    <g id="player1Chips">
        <use xlink:href="#chip-100" x="910" y="315" width="50" height="50" />
        <use xlink:href="#chip-10" x="950" y="335" width="50" height="50" />
    </g>
    <g id="player2Chips">
        <use xlink:href="#chip-25" x="1100" y="295" width="50" height="50" />
        <use xlink:href="#chip-5" x="1080" y="325" width="50" height="50" />
    </g>
    <g id="buttons">
        <use class="btn" xlink:href="#btn-hit" x="760" y="600" width="180" height="60" transform-origin="850px 630px"/>
        <use class="btn" xlink:href="#btn-stand" x="980" y="600" width="180" height="60" transform-origin="1070px 630px"/>
    </g>
</svg>